<svg xmlns="http://www.w3.org/2000/svg" xmlns:xlink="http://www.w3.org/1999/xlink" width="106" height="191" viewBox="0 0 106 191">
    <defs>
        <linearGradient id="a" x1="50%" x2="50%" y1="0%" y2="117.114%">
            <stop offset="0%" stop-color="#493020"/>
            <stop offset="100%" stop-color="#B38967"/>
        </linearGradient>
        <path id="c" d="M74.085 150h-2.17c-.205.585-.761 1-1.415 1-.658 0-1.21-.417-1.415-1h-2.17c-.205.585-.761 1-1.415 1-.658 0-1.21-.417-1.415-1h-2.17c-.205.585-.761 1-1.415 1-.658 0-1.21-.417-1.415-1h-2.17c-.205.585-.761 1-1.415 1-.658 0-1.21-.417-1.415-1h-2.17c-.205.585-.761 1-1.415 1-.658 0-1.21-.417-1.415-1h-2.17c-.205.585-.761 1-1.415 1-.658 0-1.21-.417-1.415-1h-2.17c-.205.585-.761 1-1.415 1-.658 0-1.21-.417-1.415-1h-2.17c-.205.585-.761 1-1.415 1-.658 0-1.21-.417-1.415-1h-2.17c-.205.585-.761 1-1.415 1-.658 0-1.21-.417-1.415-1h-2.17c-.205.585-.761 1-1.415 1-.658 0-1.21-.417-1.415-1h-2.17c-.205.585-.761 1-1.415 1-.658 0-1.21-.417-1.415-1h-2.17c-.205.585-.761 1-1.415 1-.658 0-1.21-.417-1.415-1h-2.17c-.205.585-.761 1-1.415 1-.658 0-1.21-.417-1.415-1H7.198l-6.855 6.855v19.634a2.23 2.23 0 0 0 2.228 2.228h80.858a2.23 2.23 0 0 0 2.228-2.228v-19.433L78.6 150h-1.686c-.205.585-.761 1-1.415 1-.658 0-1.21-.417-1.415-1zm0-1h-2.17c-.204-.583-.757-1-1.415-1-.654 0-1.21.415-1.415 1h-2.17c-.204-.583-.757-1-1.415-1-.654 0-1.21.415-1.415 1h-2.17c-.204-.583-.757-1-1.415-1-.654 0-1.21.415-1.415 1h-2.17c-.204-.583-.757-1-1.415-1-.654 0-1.21.415-1.415 1h-2.17c-.204-.583-.757-1-1.415-1-.654 0-1.21.415-1.415 1h-2.17c-.204-.583-.757-1-1.415-1-.654 0-1.21.415-1.415 1h-2.17c-.204-.583-.757-1-1.415-1-.654 0-1.21.415-1.415 1h-2.17c-.204-.583-.757-1-1.415-1-.654 0-1.21.415-1.415 1h-2.17c-.204-.583-.757-1-1.415-1-.654 0-1.21.415-1.415 1h-2.17c-.204-.583-.757-1-1.415-1-.654 0-1.21.415-1.415 1h-2.17c-.204-.583-.757-1-1.415-1-.654 0-1.21.415-1.415 1h-2.17c-.204-.583-.757-1-1.415-1-.654 0-1.21.415-1.415 1h-2.17c-.204-.583-.757-1-1.415-1-.654 0-1.21.415-1.415 1H7.399l-7.056-7.056v-86.3c0-.587.232-1.151.647-1.569l20.122-20.253a2.222 2.222 0 0 1 1.58-.66h40.616c.592 0 1.16.237 1.579.66L85.01 54.078c.415.418.647.983.647 1.572v86.093L78.399 149h-1.484c-.204-.583-.757-1-1.415-1-.654 0-1.21.415-1.415 1zM50.32 56c0-4.038-3.284-7.323-7.321-7.323-4.038 0-7.322 3.285-7.322 7.322S38.962 63.32 43 63.32c4.037 0 7.321-3.284 7.321-7.32z"/>
        <filter id="b" width="187.7%" height="122.7%" x="-43.9%" y="-9.3%" filterUnits="objectBoundingBox">
            <feOffset dy="3" in="SourceAlpha" result="shadowOffsetOuter1"/>
            <feGaussianBlur in="shadowOffsetOuter1" result="shadowBlurOuter1" stdDeviation="5"/>
            <feColorMatrix in="shadowBlurOuter1" values="0 0 0 0 0 0 0 0 0 0 0 0 0 0 0 0 0 0 0.283259737 0"/>
        </filter>
        <path id="d" d="M74.082 107.481H3.717l.082-.082-3.664-3.663v-83.01c0-.55.217-1.076.605-1.467L18.544 1.331a2.076 2.076 0 0 1 1.478-.615h38.956c.554 0 .085.22.476.617L77.26 19.262c.388.39.605.918.605 1.468V103.534L74 107.4l.082.082zM46.32 19c0-4.037-3.284-7.322-7.321-7.322-4.038 0-7.322 3.285-7.322 7.322S34.962 26.32 39 26.32c4.037 0 7.321-3.284 7.321-7.32z"/>
        <path id="f" d="M43 63.32c4.037 0 7.321-3.284 7.321-7.32 0-4.038-3.284-7.323-7.321-7.323-4.038 0-7.322 3.285-7.322 7.322S38.962 63.32 43 63.32m0 4.678c-6.616 0-12-5.382-12-11.999C31 49.383 36.384 44 43 44s11.998 5.383 11.998 12c0 6.616-5.382 11.998-11.998 11.998"/>
        <filter id="e" width="104.2%" height="108.3%" x="-2.1%" y="-2.1%" filterUnits="objectBoundingBox">
            <feOffset dy="1" in="SourceAlpha" result="shadowOffsetOuter1"/>
            <feColorMatrix in="shadowOffsetOuter1" values="0 0 0 0 0.253321641 0 0 0 0 0.149560121 0 0 0 0 0.0606216759 0 0 0 0.712720788 0"/>
        </filter>
        <linearGradient id="g" x1="50.758%" x2="50.758%" y1="-.75%" y2="100.25%">
            <stop offset="0%" stop-color="#A7744A"/>
            <stop offset="0%" stop-color="#B58C6B"/>
            <stop offset="59.52%" stop-color="#382214"/>
            <stop offset="74.293%" stop-color="#C09572"/>
            <stop offset="100%" stop-color="#301B0E"/>
        </linearGradient>
    </defs>
    <g fill="none" fill-rule="evenodd">
        <g fill="url(#a)" transform="translate(43)">
            <path d="M2.721 6a16.804 16.804 0 0 0-.062-1.756C2.541 3.08 1.641 1.956.59 1.116.76.88 1.062.67 1.596.67c.709 0 1.276.113 1.625.207C4.088 2.37 4.468 4.149 4.576 6H2.721zM9.001 6c.019-1.931.285-3.825 1.038-5.45.139-.074.285-.156.439-.245 1.182-.69 1.532.143 1.635.657-.623.688-1.08 1.476-1.162 2.282-.075.745-.075 1.724-.035 2.756H9.001z"/>
        </g>
        <g fill-rule="nonzero" transform="translate(10 -1)">
            <use fill="#000" filter="url(#b)" xlink:href="#c"/>
            <use fill="#F2DCAF" fill-rule="evenodd" xlink:href="#c"/>
        </g>
        <use fill="#FFF" fill-rule="nonzero" transform="translate(14 36)" xlink:href="#d"/>
        <g transform="translate(10 -1)">
            <use fill="#000" filter="url(#e)" xlink:href="#f"/>
            <use fill="#B49063" xlink:href="#f"/>
        </g>
        <path fill="url(#g)" d="M33.649 1.46c-2.451 3.667-1.6 9.309-1.031 13.429.871 6.315 3.082 10.19 4.458 16.375 1.312 5.9 1.485 15.002 1.501 21.024.003.97 1.885.412 1.882-.46-.014-4.834-.14-12.688-.854-17.477-.679-4.543-2.225-7.802-3.362-12.235-1.328-5.175-2.839-11.486-2.292-16.872.128-1.256 1.168-2.47 2.326-3.326-.031-.237-.207-.91-1.206-.91-.57 0-1.062.22-1.422.453zm11.795.176c.292 2.713-.44 7.022-.696 10.313-.49 6.325-.828 10.835-.294 17.16.552 6.543 1.95 15.971 2.156 22.548.028.87-1.851 1.435-1.882.459-.171-5.484-1.14-13.857-1.807-19.29-.63-5.15-.591-9.263-.421-14.44.155-4.707.421-9.392 1.15-15.076.08-.626-.07-1.164-.386-1.598.013-.258.168-.61.886-.703.724-.094 1.107.307 1.294.627z" transform="translate(10 -1)"/>
        <path fill="#A9784F" d="M46.686 32.102c.477-1.508 3.052-2.315 4.243-2.518 2.71-.46 5.146-.05 6.451 2.452.04.075-.075.217.17.216 1.128-.005 1.623-.022 1.565-.15-.472-1.033-1.735-3.953-6.973-3.953-2.252 0-6.291.913-7.588 3.717-.064.138 0 .38.09.38.67 0 1.99.02 2.042-.144z"/>
    </g>
</svg>
