<svg width="18" height="14" viewBox="0 0 18 14" xmlns="http://www.w3.org/2000/svg"><title>762F2930-4C7E-4A99-8C92-5D455A24A8D6</title><g fill-rule="nonzero" fill="#0092FF"><path d="M17.182 0H.818C.366 0 0 .26 0 .583V1.75c0 .323.366.583.818.583h16.364c.452 0 .818-.26.818-.583V.583C18 .261 17.634 0 17.182 0zM17.182 5.833H.818c-.452 0-.818.261-.818.584v1.166c0 .323.366.584.818.584h16.364c.452 0 .818-.261.818-.584V6.417c0-.323-.366-.584-.818-.584zM17.182 11.667H.818c-.452 0-.818.26-.818.583v1.167c0 .322.366.583.818.583h16.364c.452 0 .818-.26.818-.583V12.25c0-.323-.366-.583-.818-.583z"/></g></svg>