<svg xmlns="http://www.w3.org/2000/svg" width="110" height="110" viewBox="0 0 110 110">
    <g fill="none" fill-rule="evenodd">
        <rect width="108" height="108" x="1" y="1" stroke="#FAC883" stroke-width="2" rx="54"/>
        <g fill="#FAC883" fill-rule="nonzero">
            <path d="M55 78.129c4.89 0 19.613-8.917 19.613-22.083v-20.02a.968.968 0 0 0-.827-.957l-14.16-2.079a16.43 16.43 0 0 0-9.252 0l-14.16 2.079a.968.968 0 0 0-.827.957v20.02c0 13.166 14.723 22.083 19.613 22.083zM37.323 36.863l13.4-1.968a.883.883 0 0 0 .135-.03 14.489 14.489 0 0 1 8.285 0c.044.014.09.024.135.03l13.4 1.968v19.183c0 11.788-13.405 20.148-17.678 20.148-4.273 0-17.677-8.36-17.677-20.148V36.863z"/>
            <path d="M52.576 62.67a.968.968 0 0 0 1.534-.122l8.764-13.596a.967.967 0 1 0-1.627-1.048l-8.077 12.53-3.22-3.584a.968.968 0 0 0-1.44 1.294l4.066 4.526z"/>
        </g>
    </g>
</svg>
