<svg xmlns="http://www.w3.org/2000/svg" width="110" height="110" viewBox="0 0 110 110">
    <g fill="none" fill-rule="evenodd">
        <rect width="108" height="108" x="1" y="1" stroke="#FAC883" stroke-width="2" rx="54"/>
        <path fill="#FAC883" fill-rule="nonzero" d="M51.917 30.014v.014a1.295 1.295 0 0 0-.431 0c-.375.066-.495.204-.64.322a4.373 4.373 0 0 0-.414.39c-.272.286-.556.627-.839.965a35.3 35.3 0 0 1-.78.914 4.45 4.45 0 0 1-.223.23c-.081 0-.178-.021-.311-.035-.321-.044-.746-.12-1.177-.195-.432-.076-.87-.153-1.26-.195a4.44 4.44 0 0 0-.565-.031c-.187 0-.37-.02-.698.171-.328.191-.393.36-.49.52a4.474 4.474 0 0 0-.253.507c-.158.362-.314.782-.465 1.198-.15.415-.298.825-.421 1.13a4.618 4.618 0 0 1-.133.297 5.221 5.221 0 0 1-.309.079c-.316.07-.739.145-1.17.222-.431.077-.87.158-1.253.253a4.27 4.27 0 0 0-.54.165c-.175.068-.355.107-.596.397-.242.29-.245.473-.28.657a4.407 4.407 0 0 0-.07.561c-.025.395-.025.844-.026 1.287-.002.442-.001.88-.014 1.208-.006.14-.018.242-.028.325-.066.05-.146.11-.263.185-.275.176-.651.394-1.03.616-.38.222-.762.45-1.089.67-.163.111-.311.22-.451.343-.14.125-.294.221-.421.575-.128.354-.073.527-.045.712.029.185.076.361.13.551.11.38.259.803.407 1.219.15.415.295.827.394 1.14.042.132.07.233.089.314a4.21 4.21 0 0 1-.192.27c-.198.26-.475.592-.756.931-.28.34-.563.686-.794 1.007-.116.16-.219.311-.308.475-.09.165-.202.31-.202.685 0 .375.112.52.202.684.09.165.192.316.308.476.231.32.513.667.794 1.006.28.34.558.671.756.931.086.112.146.2.192.27-.02.083-.047.182-.089.316a35.4 35.4 0 0 1-.394 1.14c-.148.415-.298.834-.407 1.214-.054.19-.101.37-.13.555-.028.185-.083.358.045.712.127.353.28.45.42.575.14.124.29.231.452.342.327.221.71.448 1.089.67.379.223.755.438 1.03.613.116.074.197.135.263.185.01.084.022.188.028.329.013.328.012.765.014 1.208 0 .442 0 .888.027 1.283.013.198.033.381.068.565.036.184.04.366.281.657.241.29.421.33.596.397.174.069.35.12.54.168.382.095.822.175 1.253.253.431.077.854.153 1.17.223.132.03.23.056.309.078.036.076.08.17.133.298.08.195.177.47.27.726l-4.627 7.882a.942.942 0 0 0 1.058 1.386l4.233-1.136 1.137 4.237a.942.942 0 0 0 1.721.226l4.367-7.56c.092.052.204.1.377.13.375.066.535-.021.712-.083.177-.061.344-.135.52-.222.353-.175.74-.396 1.12-.616.379-.22.752-.44 1.04-.592.12-.064.208-.107.284-.14.075.033.164.076.284.14.287.152.66.371 1.04.592.38.22.766.441 1.12.616.176.087.343.16.52.222.176.062.337.149.711.082.172-.03.282-.079.374-.13l4.363 7.56a.94.94 0 0 0 1.722-.225l1.136-4.234 4.23 1.136a.94.94 0 0 0 1.055-1.386L67.1 66.95c.095-.261.193-.54.273-.739.053-.128.097-.223.134-.298a5.22 5.22 0 0 1 .308-.078c.317-.07.74-.144 1.17-.223.432-.077.871-.158 1.253-.253.19-.047.367-.1.54-.168.175-.068.355-.107.596-.397.242-.29.245-.473.281-.657.036-.184.055-.367.068-.565.027-.395.027-.84.028-1.283 0-.443 0-.88.013-1.208.006-.14.018-.245.028-.329.066-.049.147-.11.263-.185.275-.175.648-.39 1.027-.612.379-.223.762-.45 1.089-.671.163-.11.311-.218.451-.342.14-.125.294-.222.421-.575.128-.354.073-.527.045-.712a4.487 4.487 0 0 0-.13-.555c-.11-.38-.259-.8-.408-1.215a35.36 35.36 0 0 1-.393-1.14 4.567 4.567 0 0 1-.09-.314c.047-.07.107-.16.193-.27.198-.26.475-.592.756-.932.28-.34.566-.686.797-1.006a4.36 4.36 0 0 0 .308-.476c.09-.164.202-.309.202-.684 0-.376-.112-.52-.202-.685a4.36 4.36 0 0 0-.308-.475c-.231-.32-.516-.667-.797-1.007a35.19 35.19 0 0 1-.756-.934 4.742 4.742 0 0 1-.192-.267c.02-.082.047-.181.089-.315.099-.312.245-.724.393-1.14.15-.415.299-.838.408-1.218a4.43 4.43 0 0 0 .13-.55c.028-.186.083-.36-.045-.713-.127-.353-.28-.45-.42-.575a4.306 4.306 0 0 0-.452-.342c-.327-.221-.71-.449-1.089-.67-.379-.223-.752-.441-1.027-.617a4.306 4.306 0 0 1-.263-.185c-.01-.084-.022-.186-.028-.325-.013-.328-.012-.766-.013-1.208-.001-.443-.001-.892-.028-1.287a4.41 4.41 0 0 0-.068-.561c-.036-.184-.04-.367-.28-.657-.242-.291-.422-.33-.596-.397a4.27 4.27 0 0 0-.541-.165 20.694 20.694 0 0 0-1.253-.253c-.43-.077-.853-.153-1.17-.222a5.218 5.218 0 0 1-.308-.08 4.708 4.708 0 0 1-.134-.297c-.123-.304-.27-.714-.42-1.13-.151-.415-.308-.835-.466-1.197a4.412 4.412 0 0 0-.253-.507c-.096-.16-.165-.33-.49-.52-.327-.191-.511-.168-.698-.171-.187 0-.37.017-.565.03-.39.043-.828.12-1.26.196-.43.075-.855.152-1.177.195a6.62 6.62 0 0 1-.311.034 4.604 4.604 0 0 1-.223-.23 35.296 35.296 0 0 1-.78-.913c-.282-.338-.57-.683-.842-.969a4.248 4.248 0 0 0-.41-.386c-.146-.118-.266-.259-.64-.326-.376-.066-.536.018-.712.08a4.423 4.423 0 0 0-.52.225c-.354.175-.74.396-1.12.616-.38.22-.753.44-1.04.592-.12.063-.209.1-.284.134-.076-.034-.164-.07-.284-.134-.288-.152-.661-.372-1.04-.592-.38-.22-.767-.441-1.12-.616a4.417 4.417 0 0 0-.52-.226c-.089-.03-.172-.068-.28-.089zm-.11 1.848c.048.021.076.027.134.055.275.137.642.344 1.017.561.374.218.756.442 1.098.623.171.091.331.174.493.24.162.066.291.144.613.144.321 0 .447-.078.609-.144.162-.067.321-.15.493-.24.342-.18.727-.405 1.102-.623.375-.217.74-.425 1.016-.56.059-.03.086-.035.134-.056.037.037.06.052.106.1.213.223.488.55.767.883.278.333.56.676.82.965.131.143.252.272.38.39.13.12.224.235.524.346.301.11.449.082.623.075.175 0 .353-.025.545-.051.383-.053.82-.132 1.245-.206.426-.075.843-.145 1.147-.178.065 0 .092.001.144-.017.024.05.037.074.065.137.124.284.275.686.424 1.095.149.41.298.83.445 1.191.073.18.145.345.226.5.08.156.13.296.373.503.244.207.391.23.558.284.166.055.338.098.527.14.378.085.814.16 1.239.237.425.077.842.152 1.14.226.065.017.092.03.143.044.006.054.013.084.017.154.021.31.023.738.024 1.174.002.437.002.883.018 1.273.007.195.017.374.04.548.024.173.024.322.182.599.158.276.287.35.424.458.138.109.285.21.449.315.326.21.711.431 1.085.65.373.22.738.437.992.61.058.038.08.059.123.092-.013.055-.018.086-.037.154-.086.298-.227.702-.373 1.113-.147.41-.297.826-.414 1.197-.059.186-.11.36-.148.53-.036.173-.088.312-.034.624.055.312.15.426.243.575.093.149.2.297.319.452.236.309.52.647.797.982.277.335.548.667.729.917.042.058.058.086.089.134-.031.047-.047.075-.089.133-.181.25-.452.579-.729.914-.277.335-.561.676-.797.986a5.768 5.768 0 0 0-.319.445c-.093.148-.188.269-.243.581-.054.313-.002.452.034.623.037.172.089.342.148.527.117.372.267.792.414 1.202.146.41.287.814.373 1.112.02.068.024.1.037.154-.044.033-.065.052-.123.092-.254.174-.619.39-.992.61-.374.219-.759.441-1.085.65a5.9 5.9 0 0 0-.449.311c-.137.109-.266.183-.424.459-.158.276-.158.422-.181.596a5.947 5.947 0 0 0-.041.55c-.016.39-.016.834-.018 1.27 0 .437-.003.864-.024 1.174-.004.07-.01.102-.017.158-.051.017-.078.027-.143.044-.298.074-.715.153-1.14.23-.425.077-.861.152-1.24.236-.188.042-.36.082-.526.137-.167.054-.314.08-.558.287-.244.207-.292.348-.373.503a5.9 5.9 0 0 0-.226.5c-.147.36-.296.781-.445 1.19-.149.41-.3.809-.424 1.093-.028.063-.044.088-.069.137-.051 0-.077 0-.14-.018a19.98 19.98 0 0 1-1.147-.177c-.425-.076-.862-.155-1.245-.206a5.701 5.701 0 0 0-.545-.055c-.174 0-.322-.028-.623.083-.3.11-.394.224-.523.342-.13.119-.25.25-.38.393-.26.289-.543.632-.821.966-.28.333-.554.652-.767.876l-.106.106c-.048-.021-.075-.03-.134-.058a20.352 20.352 0 0 1-1.016-.565c-.375-.217-.76-.442-1.102-.623a5.437 5.437 0 0 0-.493-.236c-.162-.067-.288-.144-.61-.144-.32 0-.45.077-.612.144a5.733 5.733 0 0 0-.493.24c-.342.18-.724.405-1.098.622-.375.217-.742.425-1.017.562-.058.028-.086.037-.133.058-.038-.037-.061-.057-.107-.106a19.687 19.687 0 0 1-.766-.876c-.279-.334-.561-.677-.822-.966a5.954 5.954 0 0 0-.38-.393c-.129-.118-.222-.232-.523-.342-.301-.11-.448-.09-.623-.083-.175 0-.353.029-.544.055-.384.053-.82.132-1.246.206-.425.075-.842.145-1.147.177-.063 0-.089 0-.14.018-.024-.05-.04-.072-.068-.137a20.008 20.008 0 0 1-.425-1.092c-.149-.41-.298-.83-.445-1.191a5.83 5.83 0 0 0-.226-.5c-.08-.156-.129-.296-.373-.503-.244-.207-.391-.234-.558-.287a5.642 5.642 0 0 0-.527-.137c-.378-.084-.813-.16-1.239-.237a20.902 20.902 0 0 1-1.14-.229c-.065-.017-.091-.027-.143-.044-.006-.056-.012-.088-.017-.158a20.62 20.62 0 0 1-.024-1.174c-.001-.436-.002-.88-.017-1.27a5.975 5.975 0 0 0-.041-.55c-.024-.174-.024-.32-.182-.596-.158-.276-.286-.35-.424-.459a5.638 5.638 0 0 0-.452-.311c-.327-.209-.711-.431-1.085-.65-.374-.22-.737-.437-.992-.61-.058-.038-.08-.059-.124-.092.014-.054.018-.086.038-.154.086-.298.226-.702.373-1.112.147-.41.297-.83.414-1.202.059-.185.11-.355.147-.527.037-.171.09-.31.035-.623-.055-.312-.15-.433-.243-.581-.093-.15-.2-.291-.319-.445-.236-.31-.52-.65-.797-.986a20.113 20.113 0 0 1-.726-.914c-.042-.058-.058-.086-.089-.133.031-.048.047-.076.09-.134.18-.25.448-.582.725-.917.277-.335.561-.677.797-.986.118-.154.226-.3.319-.448.092-.15.188-.263.243-.575.054-.312.002-.452-.035-.623a5.864 5.864 0 0 0-.147-.53c-.117-.372-.267-.788-.414-1.198-.147-.41-.287-.815-.373-1.113-.02-.068-.024-.1-.038-.154.044-.033.066-.054.124-.092.255-.174.618-.39.992-.61.374-.219.758-.44 1.085-.65.164-.105.314-.207.452-.315.138-.108.266-.182.424-.458.158-.277.158-.426.182-.6.023-.173.033-.352.04-.547.016-.39.017-.836.018-1.273.001-.436.003-.864.024-1.174.004-.07.01-.098.017-.154.052-.017.078-.029.144-.044.297-.074.714-.15 1.14-.226.425-.077.86-.153 1.238-.236.19-.043.36-.086.527-.14.167-.055.314-.078.558-.285.244-.207.292-.348.373-.503a5.9 5.9 0 0 0 .226-.5c.147-.36.296-.781.445-1.19.149-.41.3-.812.425-1.096.027-.063.04-.088.065-.137.052 0 .079 0 .143.017.305.034.722.104 1.147.178.425.076.862.154 1.246.206.191.026.37.047.544.054.175 0 .322.032.623-.078.3-.11.394-.224.523-.343.13-.119.25-.249.38-.393.26-.289.543-.632.822-.965.278-.334.554-.66.766-.883.045-.048.069-.063.107-.1zm3.355 4.326c-8.217 0-14.895 6.679-14.895 14.895 0 8.217 6.678 14.895 14.895 14.895 8.216 0 14.895-6.678 14.895-14.895 0-8.216-6.679-14.895-14.895-14.895zm0 1.654c7.322 0 13.238 5.92 13.238 13.241a13.225 13.225 0 0 1-13.238 13.239 13.225 13.225 0 0 1-13.239-13.239c0-7.322 5.917-13.241 13.239-13.241zm-.041 4.853c-.527 0-.756.272-.931.462-.176.19-.309.396-.445.623-.273.453-.538.997-.798 1.55s-.512 1.11-.722 1.533c-.105.212-.2.392-.27.507-.014.023-.02.03-.034.048-.02 0-.027.017-.052.017-.13.033-.328.07-.561.106-.467.075-1.074.15-1.68.233a17.43 17.43 0 0 0-1.726.301c-.257.063-.488.13-.722.24-.234.11-.559.245-.718.746-.16.501.023.801.15 1.026.127.225.282.413.455.613.347.4.786.822 1.232 1.24.447.416.902.829 1.24 1.16.168.164.309.308.396.41.015.018.017.025.028.041 0 .023.005.032.003.058-.009.135-.032.339-.068.572-.073.466-.19 1.062-.298 1.663-.108.601-.21 1.201-.25 1.729-.02.263-.026.507.007.763s.061.607.49.914c.428.306.77.22 1.023.17.253-.05.482-.136.725-.239.488-.206 1.025-.492 1.561-.787.536-.295 1.066-.6 1.485-.818.21-.109.393-.195.517-.246.026-.018.037-.018.058-.018.02 0 .028 0 .048.018.125.05.31.136.52.243.422.213.953.508 1.493.797.54.289 1.08.573 1.57.774.246.1.475.181.73.229.254.047.595.128 1.02-.185.424-.312.452-.664.482-.92a3.65 3.65 0 0 0-.003-.76c-.046-.527-.158-1.129-.274-1.729-.116-.6-.236-1.194-.315-1.66a7.248 7.248 0 0 1-.079-.568c-.002-.024 0-.034 0-.055a.324.324 0 0 1 .031-.04c.087-.104.224-.255.39-.422.334-.334.784-.75 1.226-1.174.441-.422.876-.845 1.218-1.249.171-.202.321-.396.445-.623.124-.227.306-.524.14-1.023-.166-.5-.493-.635-.729-.743a3.74 3.74 0 0 0-.729-.233c-.516-.119-1.117-.198-1.725-.273-.607-.076-1.216-.144-1.684-.213a7.227 7.227 0 0 1-.564-.102c-.023 0-.03-.017-.048-.017-.015-.018-.023-.025-.038-.048a7.331 7.331 0 0 1-.274-.5c-.215-.42-.476-.973-.742-1.523-.267-.55-.536-1.094-.815-1.544a3.717 3.717 0 0 0-.455-.616c-.178-.187-.408-.455-.934-.451v-.007zm.013 2.207c.19.328.395.715.613 1.164.259.534.516 1.093.756 1.56.12.235.234.445.353.634.119.189.196.35.482.554.287.205.464.226.681.278.218.052.455.091.716.13.521.077 1.135.145 1.725.219.495.06.926.131 1.297.205-.254.28-.557.597-.917.941-.43.41-.881.829-1.253 1.201-.186.187-.35.36-.493.531-.143.172-.276.295-.383.63-.107.335-.07.51-.051.732.017.223.051.46.095.719.088.519.217 1.122.329 1.704.094.49.16.922.205 1.297-.345-.154-.74-.346-1.18-.581-.524-.28-1.064-.58-1.534-.818a8.32 8.32 0 0 0-.657-.305c-.207-.084-.366-.171-.719-.168-.352 0-.509.093-.715.178a8.51 8.51 0 0 0-.654.315c-.467.244-1.003.549-1.523.835-.437.241-.83.437-1.174.596.04-.376.104-.81.192-1.3.105-.584.223-1.189.305-1.709.04-.26.07-.496.085-.718.015-.223.05-.399-.061-.733-.111-.333-.242-.453-.387-.623a8.352 8.352 0 0 0-.503-.527c-.377-.368-.833-.779-1.267-1.184-.364-.34-.67-.654-.927-.93.37-.078.802-.157 1.297-.223.589-.081 1.198-.153 1.718-.237a8.58 8.58 0 0 0 .712-.14c.217-.054.397-.075.681-.284.284-.208.356-.37.472-.561.117-.19.229-.405.346-.64.234-.471.487-1.03.74-1.568.211-.451.414-.844.598-1.174zM44.127 69.12c.082.144.165.291.452.459.328.19.511.166.698.171.187 0 .37-.017.565-.03.39-.043.828-.12 1.26-.196.431-.075.856-.15 1.177-.195a6.62 6.62 0 0 1 .311-.034c.06.058.13.128.223.23.219.242.498.575.78.913.047.056.093.105.14.16l-3.484 6.038-.79-2.95a.942.942 0 0 0-1.154-.664l-2.926.784 2.748-4.686zm22.062.017l2.745 4.679-2.926-.784a.94.94 0 0 0-1.15.668l-.79 2.943-3.485-6.03c.05-.06.098-.109.147-.168.283-.338.562-.672.78-.914a4.45 4.45 0 0 1 .223-.23c.082 0 .179.023.311.035.322.044.746.119 1.178.195.431.075.868.153 1.26.195.195.021.377.034.564.03.187 0 .37.02.698-.17.28-.163.365-.31.445-.449z"/>
    </g>
</svg>
