<svg xmlns="http://www.w3.org/2000/svg" width="110" height="110" viewBox="0 0 110 110">
    <g fill="none" fill-rule="evenodd">
        <rect width="108" height="108" x="1" y="1" stroke="#FAC883" stroke-width="2" rx="54"/>
        <path fill="#FAC883" fill-rule="nonzero" d="M33.315 39.004a.897.897 0 0 0-.729.896v26h-2.69a.897.897 0 0 0-.896.897c0 2.526 2.276 4.483 4.931 4.483h42.138c2.655 0 4.931-1.957 4.931-4.483a.897.897 0 0 0-.897-.897h-2.69v-26a.897.897 0 0 0-.896-.896H33.483a.897.897 0 0 0-.168 0zm1.064 1.793h41.242V65.9H34.379V40.797zm10.759 3.586v1.793h2.297l2.69 11.095c-.863.45-1.457 1.322-1.457 2.354a2.704 2.704 0 0 0 2.69 2.69 2.704 2.704 0 0 0 2.69-2.69c0-.307-.072-.621-.169-.897h2.018c-.097.276-.169.59-.169.897a2.704 2.704 0 0 0 2.69 2.69 2.704 2.704 0 0 0 2.69-2.69 2.669 2.669 0 0 0-2.298-2.634.897.897 0 0 0-.168-.056h-6.78l-.448-1.793h8.405c.404.02.77-.232.897-.617l2.297-7.172a.897.897 0 0 0-.84-1.177H49.283l-.28-1.064a.897.897 0 0 0-.784-.729h-3.082zm4.539 3.586H60.94l-.56 1.794h-5.604v1.793h4.987l-.56 1.793h-8.181l-1.345-5.38zm1.457 10.76h.224c.504 0 .896.39.896.896a.884.884 0 0 1-.896.896.884.884 0 0 1-.897-.896c0-.435.27-.808.673-.897zm7.284 0c.505 0 .897.39.897.896a.884.884 0 0 1-.897.896.884.884 0 0 1-.896-.896c0-.506.392-.897.896-.897zm-27.177 8.965H78.76c-.443.985-1.32 1.793-2.69 1.793H33.931c-1.369 0-2.247-.809-2.69-1.793z"/>
    </g>
</svg>
