<svg xmlns="http://www.w3.org/2000/svg" width="110" height="110" viewBox="0 0 110 110">
    <g fill="none" fill-rule="evenodd">
        <rect width="108" height="108" x="1" y="1" stroke="#FAC883" stroke-width="2" rx="54"/>
        <path fill="#FAC883" fill-rule="nonzero" d="M79.322 57.953c-.006.006-.006.012-.006.012h-.006v-.012l-.035.006.035.006v.075c0 .006 0 .018.006.023-.006.006 0 .006 0 .011a.929.929 0 0 0 .935.906.934.934 0 0 0 .94-.911v-.029c0-.029 0-.063-.012-.092a.703.703 0 0 0-.057-.26c0-.006-.006-.011-.006-.017-.006-.006-.006-.012-.012-.018a1.14 1.14 0 0 0-.202-.329c-.15-.172-.392-.357-.744-.513-.271.185-.473.369-.6.548-.092.12-.15.23-.19.34 0 .017-.006.029-.011.046-.006.035-.018.069-.023.11a.2.2 0 0 0-.012.063v.023c-.006 0-.006.006 0 .012zm-39.42-19.165c1.465.15 2.769.497 3.877 1.103h.006a16.107 16.107 0 0 1 3.525-.987v-.052A7.854 7.854 0 0 1 55.167 31a7.854 7.854 0 0 1 7.858 7.852v.058c7.557 1.228 13.402 7.517 13.956 15.276.64.023 1.263.07 1.846.15.398.058.785.133 1.148.225h.006c1.136-.502 2.503-.756 3.98-.756.578 0 1.039.462 1.039 1.04 0 .57-.461 1.038-1.039 1.038-.507 0-1.003.04-1.46.11.19.224.353.478.473.755l.029.063.028.069c.035.08.064.161.087.248.011.011.011.017.011.028.052.18.093.364.115.554.012.035.012.07.012.11.011.069.011.144.011.219v.035a2.999 2.999 0 0 1-.882 2.1 2.975 2.975 0 0 1-2.135.882 3.01 3.01 0 0 1-3.011-2.919c-.006-.034-.006-.063-.006-.097 0-.087.006-.162.011-.225 0-.018.006-.035.006-.053v-.045c.006-.029.006-.052.011-.081.012-.058.018-.121.035-.179.018-.086.035-.167.058-.254.006-.011.006-.029.011-.04.006-.011.006-.017.012-.029.086-.294.219-.571.375-.825-.243-.023-.49-.035-.75-.046a16.439 16.439 0 0 1-1.293 5.648 16.631 16.631 0 0 1-3.582 5.319 16.448 16.448 0 0 1-5.337 3.582l-1.372 5.031c-.121.45-.536.767-1.004.767h-6.207c-.531 0-.981-.403-1.033-.934l-.357-3.548h-3.3l-.358 3.548a1.039 1.039 0 0 1-1.032.934h-6.208c-.468 0-.883-.317-1.004-.767l-1.367-5.013a16.776 16.776 0 0 1-9.502-10.5h-2.007c-.272 0-.543-.115-.733-.306a1.038 1.038 0 0 1-.306-.732V51.52c0-.271.11-.543.306-.733a1.03 1.03 0 0 1 .733-.306h2.007a16.579 16.579 0 0 1 5.302-7.938c-.018-.156-.04-.306-.064-.456-.11-.727-.283-1.39-.485-1.87a1.012 1.012 0 0 1-.08-.392c0-.034 0-.075.005-.11v-.01a.962.962 0 0 1 .04-.186l.035-.103c.018-.03.029-.058.046-.087a.549.549 0 0 1 .093-.144.735.735 0 0 1 .127-.138c.023-.023.046-.04.075-.064a.811.811 0 0 1 .075-.052c.046-.029.104-.052.15-.075.006 0 .006-.006.011-.006.058-.023.122-.04.18-.052a.74.74 0 0 1 .16-.018.578.578 0 0 1 .145 0c.012.001.029.001.041.007zM35.131 58.3l.092.035a.735.735 0 0 1 .197.11.29.29 0 0 1 .08.064.406.406 0 0 1 .26.329.198.198 0 0 1 .023.052c.023.046.04.092.052.144A14.691 14.691 0 0 0 44.75 69.07c.006 0 .011.006.017.006.006 0 .006.006.011.006.035.011.07.029.104.046.006.006.018.006.023.012.023.011.046.022.075.046.006.006.017.011.023.017.035.018.069.04.098.075.022.018.046.04.063.064a.906.906 0 0 1 .19.277c.023.04.04.086.053.139a.46.46 0 0 1 .022.086l1.281 4.69h4.478l.352-3.548c0-.022.006-.04.011-.063 0-.03.006-.058.018-.087.006-.034.017-.063.028-.092a.275.275 0 0 1 .035-.086.682.682 0 0 1 .081-.144c.018-.03.04-.058.058-.081.023-.03.046-.053.069-.075a.852.852 0 0 1 .075-.07c.023-.022.052-.04.08-.057a.97.97 0 0 1 .168-.092l.006-.006c.064-.023.127-.047.196-.058.023-.006.04-.011.064-.011.046-.012.098-.012.144-.012h5.192c.052 0 .098.006.15.012.018 0 .04.006.058.01.069.012.132.036.196.059l.006.006a.932.932 0 0 1 .167.092.852.852 0 0 1 .156.127c.023.022.047.046.07.075.017.022.04.052.057.08a.725.725 0 0 1 .081.145.275.275 0 0 1 .035.086c.011.029.023.058.029.092a.234.234 0 0 1 .017.087v.017c.006.018.011.029.011.046l.353 3.548h4.477l1.292-4.73c0-.012 0-.018.006-.024a.852.852 0 0 1 .064-.167 1.57 1.57 0 0 1 .075-.139c.006-.006.011-.017.017-.022.029-.04.058-.081.098-.116a.454.454 0 0 1 .098-.086.15.15 0 0 1 .034-.029c.006-.006.012-.011.018-.011.029-.023.057-.04.086-.058.006-.006.012-.006.018-.011l.028-.018c.03-.011.058-.028.093-.04.006 0 .011-.006.017-.006a14.55 14.55 0 0 0 5.089-3.311l.006-.006a14.578 14.578 0 0 0 4.286-10.356c.006-7.263-5.285-13.286-12.213-14.44a7.66 7.66 0 0 1-1.039 2.256 1.038 1.038 0 0 1-.127 2.066h-12.81a1.042 1.042 0 0 1-1.039-1.039c0-.53.398-.969.911-1.027a7.66 7.66 0 0 1-1.038-2.256c-.664.11-1.304.265-1.927.456.3.352.565.739.778 1.16.404.767.664 1.644.797 2.602a1.044 1.044 0 0 1-.894 1.171 1.04 1.04 0 0 1-1.166-.894c-.103-.761-.3-1.39-.577-1.92a4.164 4.164 0 0 0-1.067-1.316 3.916 3.916 0 0 0-.346-.26c-.023-.011-.046-.029-.07-.04 0 0-.005 0-.005-.006-.52-.34-1.154-.606-1.898-.79.04.207.081.421.115.64.052.34.093.698.121 1.044v.011a.95.95 0 0 1 .018.18c.04.455.057.91.057 1.355-.006.814-.057 1.598-.178 2.302a1.039 1.039 0 0 1-1.2.848 1.03 1.03 0 0 1-.848-1.194c.052-.306.092-.64.115-1.004a14.544 14.544 0 0 0-3.589 6.473.59.59 0 0 1-.052.144.79.79 0 0 1-.092.173.807.807 0 0 1-.11.132.336.336 0 0 1-.064.064.728.728 0 0 1-.103.08c-.006.012-.018.012-.023.012a.886.886 0 0 1-.127.075c-.006 0-.006.006-.012.006-.017.012-.046.018-.069.023-.006.006-.011.006-.022.012a.463.463 0 0 1-.128.034.844.844 0 0 1-.207.023h-1.747v5.694h1.748c.04 0 .075 0 .115.006l.093.017c.034.004.063.01.098.021zM60.89 39.648a5.766 5.766 0 0 0-1.633-4.88 5.744 5.744 0 0 0-4.09-1.691c-1.598 0-3.04.64-4.09 1.69a5.765 5.765 0 0 0-1.633 4.88v.012a5.668 5.668 0 0 0 1.933 3.548h7.581a5.712 5.712 0 0 0 1.927-3.507c0-.012.006-.029.006-.04v-.012h-.001z"/>
    </g>
</svg>
