<svg xmlns="http://www.w3.org/2000/svg" width="110" height="110" viewBox="0 0 110 110">
    <g fill="none" fill-rule="evenodd">
        <rect width="108" height="108" x="1" y="1" stroke="#FAC883" stroke-width="2" rx="54"/>
        <g fill="#FAC883" fill-rule="nonzero">
            <path d="M41.354 34.9L60.7 43.468l-.723 1.633-19.348-8.568z"/>
            <path d="M50.536 75.625L30 67.232V39.196l20.536-8.392 20.535 9.375v13.928h-1.785V41.25l-18.75-8.482-18.75 7.678v25.536l18.75 7.679 7.946-2.857.536 1.696z"/>
            <path d="M31.219 38.989l19.667 8.045-.676 1.653-19.667-8.045z"/>
            <path d="M51.429 74.643h-1.786v-27.41L69.91 39.91l.535 1.607-19.017 6.964z"/>
            <path d="M70.179 80a13.375 13.375 0 0 1-13.393-13.393c0-7.41 5.982-13.393 13.393-13.393 7.41 0 13.392 5.982 13.392 13.393C83.571 74.017 77.59 80 70.18 80zm0-25A11.584 11.584 0 0 0 58.57 66.607 11.584 11.584 0 0 0 70.18 78.214a11.584 11.584 0 0 0 11.607-11.607A11.584 11.584 0 0 0 70.179 55z"/>
            <path d="M68.84 71.875l-4.644-4.643 1.25-1.25 3.393 3.393 6.965-6.964 1.25 1.25z"/>
        </g>
    </g>
</svg>
