<svg xmlns="http://www.w3.org/2000/svg" width="110" height="110" viewBox="0 0 110 110">
    <g fill="none" fill-rule="evenodd">
        <rect width="108" height="108" x="1" y="1" stroke="#FAC883" stroke-width="2" rx="54"/>
        <g fill="#FAC883" fill-rule="nonzero">
            <path d="M75.469 35.773h-.95c-1.64 0-3.184.64-4.341 1.8l-3.919 3.918-1.323-1.324-1.446 1.447 4.093 4.093 1.446-1.447-1.323-1.323 3.918-3.918a4.063 4.063 0 0 1 2.895-1.2h.95a2.05 2.05 0 0 1 2.048 2.047v2.048a2.05 2.05 0 0 1-2.048 2.048v2.048a4.1 4.1 0 0 0 4.093-4.093v-2.05a4.1 4.1 0 0 0-4.093-4.094z"/>
            <path d="M70.651 42.639l1.747 1.747V52.5c0 .822-.32 1.594-.9 2.171L52.653 73.517a1.044 1.044 0 0 1-1.447 0L35.679 57.989a1.026 1.026 0 0 1 0-1.446l18.845-18.845c.57-.57 1.364-.9 2.171-.9h8.116l1.747 1.747 1.446-1.446-2.346-2.346h-8.963a5.084 5.084 0 0 0-3.617 1.498L34.23 55.096a3.076 3.076 0 0 0 0 4.342l15.525 15.528c.58.58 1.352.9 2.171.9.82 0 1.591-.32 2.171-.9L72.943 56.12a5.086 5.086 0 0 0 1.498-3.62v-8.963l-2.346-2.346-1.444 1.447z"/>
            <path d="M36.492 54.555l-3.79-6.085a1.023 1.023 0 0 1 .406-1.38l18.713-10.575-2.074-1.02-17.59 9.783a3.04 3.04 0 0 0-1.492 1.819c-.239.783-.156 1.614.272 2.412l3.836 6.158 1.719-1.112z"/>
            <path d="M35.61 37.821c0-.566.46-1.023 1.024-1.023h18.44l2.083-2.048H36.634a3.075 3.075 0 0 0-3.071 3.071v7.183l2.048-1.042v-6.141z"/>
        </g>
    </g>
</svg>
