<svg xmlns="http://www.w3.org/2000/svg" width="110" height="110" viewBox="0 0 110 110">
    <g fill="none" fill-rule="evenodd">
        <rect width="108" height="108" x="1" y="1" stroke="#FAC883" stroke-width="2" rx="54"/>
        <g fill="#FAC883" fill-rule="nonzero">
            <path d="M65.06 49.106H48.145a.758.758 0 0 1 0-1.515H65.06a.758.758 0 0 1 0 1.515zM67.523 53.371H45.697a.758.758 0 1 1 0-1.515h21.826a.758.758 0 0 1 0 1.515zM62.886 57.644h-12.56a.758.758 0 1 1 0-1.515h12.56a.758.758 0 1 1 0 1.515z"/>
            <path d="M55.97 73.477h-13.5a1.985 1.985 0 0 1-1.978-1.977V40.318a.758.758 0 1 1 1.516 0V71.5c0 .255.206.462.462.462h13.5a.758.758 0 0 1 0 1.515zM71.19 73.477h-2.273a.758.758 0 1 1 0-1.515h2.272a.462.462 0 0 0 .463-.47l-.266-31.166a.758.758 0 1 1 1.515 0l.273 31.174a1.977 1.977 0 0 1-1.985 1.977z"/>
            <path d="M59.917 41.076H35.439a1.22 1.22 0 0 1-1.212-1.212V37.87A6.879 6.879 0 0 1 41.091 31h24.94a.758.758 0 1 1 0 1.515H41.09a5.364 5.364 0 0 0-5.356 5.356v1.69h24.182a.758.758 0 0 1 0 1.515z"/>
            <path d="M59.917 41.076a.758.758 0 0 1-.758-.758v-2.447A6.879 6.879 0 0 1 66.03 31a.758.758 0 1 1 0 1.515 5.364 5.364 0 0 0-5.356 5.356v2.447a.758.758 0 0 1-.757.758z"/>
            <path d="M72.144 41.076a.758.758 0 0 1-.758-.758v-2.447a5.364 5.364 0 0 0-5.356-5.356.758.758 0 0 1 0-1.515 6.879 6.879 0 0 1 6.872 6.871v2.447c0 .419-.34.758-.758.758zM62.598 75.09a1.25 1.25 0 0 1-1-.492l-.386-.492-.598.174A1.258 1.258 0 0 1 59 73.106v-.629l-.59-.212a1.265 1.265 0 0 1-.615-1.894l.349-.515-.349-.515a1.258 1.258 0 0 1 .614-1.894l.591-.212v-.629a1.258 1.258 0 0 1 1.614-1.174l.598.174.386-.515a1.303 1.303 0 0 1 1.993 0l.386.492.599-.174a1.258 1.258 0 0 1 1.613 1.197v.629l.591.212a1.258 1.258 0 0 1 .614 1.894l-.349.515.372.538a1.265 1.265 0 0 1-.614 1.894l-.59.212v.629a1.258 1.258 0 0 1-1.615 1.174L64 74.129l-.386.492a1.25 1.25 0 0 1-1.016.47zm-1.28-2.537c.39 0 .757.183.993.492l.287.38.288-.372c.317-.41.852-.585 1.349-.44l.454.13v-.47c.028-.512.364-.956.849-1.121l.44-.16-.266-.386a1.25 1.25 0 0 1 0-1.417l.265-.386-.44-.16a1.25 1.25 0 0 1-.832-1.15v-.47l-.455.129a1.258 1.258 0 0 1-1.348-.44l-.288-.371-.288.371a1.25 1.25 0 0 1-1.349.44l-.462-.167v.47c-.013.519-.344.976-.833 1.151l-.44.16.266.386c.293.426.293.99 0 1.416l-.266.387.417.197c.485.162.824.602.856 1.113v.47l.455-.129c.113-.034.23-.052.348-.053z"/>
            <path d="M65.06 81a.758.758 0 0 1-.34-.083l-2.152-1.076-2.151 1.076a.758.758 0 0 1-1.091-.758l1.068-6.909a.767.767 0 1 1 1.515.235l-.84 5.462 1.181-.59a.758.758 0 0 1 .674 0l1.16.582-.902-5.515a.768.768 0 1 1 1.515-.25l1.121 6.94a.758.758 0 0 1-.757.886z"/>
        </g>
    </g>
</svg>
