<svg width="190" height="52" viewBox="0 0 190 52" xmlns="http://www.w3.org/2000/svg"><title>3227DDE5-B1DA-4895-9D43-19160460D604</title><g fill="none" fill-rule="evenodd"><g fill="#FFF"><path d="M75.907 14.793c.201 1.023.007 1.935-.583 2.737s-1.436 1.31-2.539 1.523l-.005.092c.916 0 1.713.328 2.392.985.602.58.977 1.244 1.124 1.992.26 1.314-.066 2.451-.976 3.413-1.06 1.13-2.68 1.695-4.863 1.695H60.41l.095-16.033h9.934c1.633 0 2.946.389 3.938 1.168.831.657 1.342 1.466 1.53 2.428zm-5.872.985a1.428 1.428 0 0 0-.405-.779c-.378-.366-.955-.55-1.734-.55h-1.58l-.031 3.092h1.442c.839 0 1.457-.175 1.853-.526.396-.352.548-.764.455-1.237zm.054 6.322a1.64 1.64 0 0 0-.318-.688c-.244-.305-.507-.5-.79-.583-.285-.085-.647-.127-1.09-.127h-1.625l-.02 3.276h1.557c.916 0 1.568-.214 1.957-.642.312-.351.422-.763.329-1.236zm21.73.389c.226 1.145.018 2.145-.622 3-.87 1.16-2.443 1.741-4.716 1.741h-8.195l.064-12.002h5.791l-.025 3.825 2.13-.114c1.906 0 3.352.442 4.335 1.328.648.58 1.061 1.321 1.238 2.222zm-5.755.298c-.063-.321-.204-.573-.424-.756-.274-.23-.624-.344-1.051-.344h-.618l-.018 2.703h.48c.718 0 1.206-.198 1.463-.596.187-.29.243-.626.168-1.007zm20.487-7.56l-.087 12.003h-5.768l.016-3.985h-.618l-1.459 3.985h-5.928l2.564-4.764a3.748 3.748 0 0 1-1.348-.802c-.468-.443-.769-1-.901-1.672-.243-1.237.025-2.313.806-3.23.883-1.023 2.194-1.534 3.933-1.534h8.79zm-5.69 2.841h-.48c-.642 0-1.086.184-1.335.55-.202.29-.263.641-.181 1.054.069.35.256.622.56.813.305.19.633.286.984.286h.434l.018-2.703zm21.576-2.84l-.087 12.002h-5.769l.023-4.42h-2.06l-.023 4.42h-5.768l.087-12.002h5.768l-.03 4.146h2.06l.03-4.146h5.769zm23.653-4.031l-.028 4.741h-5.402l-.067 11.292h-6.134l.066-11.292h-5.402l.028-4.741h16.939zm14.276 8.452c.132.672.182 1.428.149 2.267l-.02.71h-8.012c.006.107.016.199.03.275.088.443.295.794.62 1.054.472.381 1.181.572 2.128.572.656 0 1.391-.08 2.207-.24.815-.16 1.536-.355 2.162-.584l-.028 3.115c-.824.229-1.706.4-2.645.515-.939.115-1.82.172-2.644.172-.931 0-1.738-.069-2.421-.206-1.035-.214-1.932-.588-2.694-1.122a5.407 5.407 0 0 1-1.364-1.352 5.515 5.515 0 0 1-.904-2.153c-.355-1.802-.082-3.436.82-4.902 1.157-1.878 3.116-2.817 5.878-2.817 1.755 0 3.21.382 4.368 1.146.774.519 1.372 1.152 1.794 1.9a5.8 5.8 0 0 1 .576 1.65zm-4.961-.435c-.103-.52-.292-.882-.57-1.088a1.441 1.441 0 0 0-.873-.31c-.35 0-.636.1-.857.298-.404.352-.604.962-.6 1.832l-.001.23h2.976l-.004-.252-.071-.71zm22.105-3.986l-4.06 5.887 4.088 6.115h-6.34l-3.262-5.29h-.092l-.034 5.29h-5.677l.087-12.002h5.676l-.043 5.245h.092l3.316-5.245h6.25zm12.37.275l-.01 3.436a6.599 6.599 0 0 0-1.377-.424 6.275 6.275 0 0 0-1.09-.126c-1.174 0-2.023.382-2.544 1.145-.463.672-.604 1.466-.424 2.382.135.687.465 1.218.989 1.592.524.374 1.16.561 1.907.561.427 0 .866-.057 1.317-.171.45-.115.879-.264 1.285-.447l-.029 3.458c-.687.23-1.37.386-2.048.47-.677.084-1.39.126-2.138.126-2.579 0-4.527-.672-5.844-2.016-.8-.809-1.315-1.794-1.543-2.955-.358-1.816-.057-3.427.903-4.832 1.257-1.833 3.411-2.749 6.463-2.749.824 0 1.554.046 2.19.138.636.091 1.3.229 1.993.412zM66.43 33.76l-.01 1.682h-1.917l-.023 4.009h-2.178l.024-4.009H60.41l.01-1.682h6.012zm6.442 0l-1.835 4.3c-.2.466-.438.813-.713 1.04-.364.299-.844.448-1.44.448-.178 0-.4-.018-.664-.053a7.71 7.71 0 0 1-.772-.142l.01-1.439c.298.087.55.13.756.13a.591.591 0 0 0 .253-.04c.093-.05.128-.133.104-.253a1.36 1.36 0 0 0-.023-.097 1.872 1.872 0 0 0-.096-.22L66.64 33.76h2.478l.785 2.463h.033l.79-2.463h2.146zm6.295 1.695c.12.612.003 1.144-.352 1.596-.416.527-1.085.79-2.006.79h-1.251l-.008 1.61h-2.178l.034-5.691H76.9c.585 0 1.085.158 1.5.477.415.316.67.723.768 1.218zm-2.185.21a.607.607 0 0 0-.29-.42 1.066 1.066 0 0 0-.568-.144h-.61V36.5h.527c.38 0 .649-.09.808-.27.133-.153.177-.34.133-.565zm7.823-1.905L84.8 35.1h-2.787l-.01.821h2.666l-.004 1.3H82l-.004.887h2.843l-.012 1.342h-4.973l.034-5.691h4.916zm6.855 0l-.02 4.064h.6l-.025 2.886h-2.177l.012-1.26h-4.2l.033-5.69h2.178l-.02 4.064h1.42l.021-4.064h2.178zm7.44 0l-1.93 2.666 2.075 3.025h-2.6l-1.385-2.415h-.033l-.012 2.415h-2.177l.034-5.691h2.177l-.015 2.235h.032l1.356-2.235H99.1zm7.082 0l-.034 5.69h-2.176l.022-3.186h-.032L102.5 39.45h-2.543l.033-5.691h2.178l-.018 3.251h.032l1.456-3.251h2.543zm6.032-1.627c-.061.461-.267.792-.618.992-.291.169-.697.253-1.217.253-.558 0-1.009-.128-1.351-.382a1.379 1.379 0 0 1-.552-.863l.958-.21c.03.151.104.268.223.349.15.103.366.155.648.155.27 0 .49-.055.659-.163.134-.087.204-.2.209-.342l1.04.211zm1.213 1.627l-.034 5.69h-2.176l.022-3.186h-.032l-1.461 3.187h-2.543l.033-5.691h2.178l-.018 3.251h.032l1.456-3.251h2.543zm8.635 0l-.01 1.682h-1.918l-.023 4.009h-2.178l.024-4.009h-1.918l.01-1.682h6.013zm5.644 0l-.004 1.341h-2.786l-.01.821h2.665l-.004 1.3h-2.664l-.005.887h2.844l-.013 1.342h-4.972l.034-5.691h4.915zm7.107 0l-1.928 2.666 2.074 3.025h-2.6l-1.385-2.415h-.033l-.012 2.415h-2.178l.034-5.691h2.177l-.015 2.235h.033l1.355-2.235h2.478zm5.419.081l-.005 1.504a3.092 3.092 0 0 0-1.148-.22c-.568 0-.995.184-1.28.553-.268.347-.354.764-.258 1.252.07.358.252.634.546.83.267.178.6.268.995.268.157 0 .298-.011.424-.033.209-.038.448-.106.715-.203l-.007 1.528c-.282.082-.562.14-.84.175-.277.035-.54.053-.79.053-.812 0-1.509-.185-2.09-.553-.644-.406-1.04-.992-1.191-1.756-.187-.948-.019-1.759.505-2.43.591-.765 1.521-1.147 2.788-1.147.282 0 .553.016.814.049.261.032.493.067.695.105l.127.025zm6.742-.081l-.01 1.682h-1.918l-.023 4.009h-2.178l.024-4.009h-1.918l.01-1.682h6.013zm6.92 0l-.034 5.69h-2.177l.022-3.186h-.032l-1.46 3.187h-2.544l.034-5.691h2.177l-.018 3.251h.033l1.456-3.251h2.543zm7.05 0l-.034 5.69h-2.177l.029-4.146h-1.056l-.012.976c-.007.758-.024 1.25-.051 1.471-.07.559-.23.978-.483 1.26-.325.358-.815.537-1.47.537-.353 0-.722-.046-1.109-.138l.013-1.464c.143.038.3.057.474.057.238 0 .416-.119.531-.357.073-.152.123-.408.15-.769.026-.36.04-.795.043-1.305l.009-1.812h5.143zm6.732 3.17c.114.58.035 1.1-.238 1.561-.377.64-1.067.96-2.07.96h-3.404l.034-5.691h2.177l-.01 1.642h1.39c.612 0 1.112.16 1.5.48.33.276.537.625.62 1.048zm-2.163.366a.654.654 0 0 0-.273-.419c-.148-.105-.339-.158-.572-.158h-.568l-.006 1.414h.438c.434 0 .727-.108.879-.325a.644.644 0 0 0 .102-.512z"/></g><path d="M26.438 1.939c6.464 0 12.34 2.645 16.598 6.906 4.258 4.261 6.902 10.14 6.902 16.609 0 6.468-2.644 12.347-6.902 16.608-4.259 4.261-10.134 6.906-16.598 6.906-6.464 0-12.34-2.645-16.599-6.906-4.258-4.26-6.901-10.14-6.901-16.608 0-6.469 2.643-12.348 6.901-16.609 4.259-4.261 10.135-6.906 16.599-6.906z" fill="#FFF"/><path d="M25.938 0c7.134 0 13.62 2.92 18.32 7.623 4.7 4.703 7.617 11.192 7.617 18.33 0 7.14-2.917 13.63-7.617 18.332-4.7 4.703-11.186 7.623-18.32 7.623-7.135 0-13.62-2.92-18.32-7.623C2.918 39.582 0 33.093 0 25.954c0-7.14 2.917-13.628 7.618-18.331C12.318 2.919 18.803 0 25.938 0zM35.97 16.561c-.023-5.572-4.546-10.084-10.12-10.084-5.59 0-10.122 4.536-10.122 10.128l.003.255a10.132 10.132 0 0 0-7.036 9.648c0 4.842 3.4 8.892 7.94 9.89-2.497.782-4.672 1.931-6.228 3.529 6.57-2.575 13.139-3.95 13.139 4.503h4.607c0-8.453 6.568-7.078 13.139-4.503-1.468-1.508-3.488-2.615-5.81-3.393 4.914-.693 8.696-4.919 8.696-10.026 0-4.938-3.534-9.051-8.208-9.947zm-9.007 26.63c.176-2.168.881-4.335 2.824-5.55a5.885 5.885 0 0 1 2.016-.77c-6.727 1.384-17.9-2.037-17.405-10.732-.499 1.778-.875 2.141-.828 2.793-1.944-2.84-1.126-7.234 2.375-10.405a8.754 8.754 0 0 0 .128 16.14c4.001 2.306 8.215 3.018 8.663 8.523h2.227zm1.07-34.978a8.7 8.7 0 0 1 3.637 1.881c-4.38-1.767-8.687-.583-10.392 2.407.566-.328 1.056-.148 2.873-.475-3.219 1.342-4.55 3.955-4.8 6.566a8.723 8.723 0 0 1 2.599-2.105 8.708 8.708 0 0 1 3.963-1.024c-4.063 1.468-6.799 5.66-6.14 8.728.203-.622.689-.815 1.824-2.272-2.411 5.048.966 9.29 4.175 11.04a8.741 8.741 0 0 1-7.438-4.64 8.74 8.74 0 0 1-.232-7.743 8.717 8.717 0 0 1-.648-5.958c1.153-4.691 5.891-7.56 10.58-6.405zm.627 6.218a7.549 7.549 0 0 1 7.241 8.372 10.466 10.466 0 0 0-7.241-8.372z" fill="#0092FF"/></g></svg>