<svg xmlns="http://www.w3.org/2000/svg" width="106" height="84" viewBox="0 0 106 84">
    <g fill="none" fill-rule="evenodd" opacity=".9">
        <path stroke="#0092FF" stroke-linecap="round" stroke-linejoin="round" stroke-width="2" d="M47.276 73.973a8.9 8.9 0 0 0-17.799 0 8.9 8.9 0 0 0 17.799 0z"/>
        <path fill="#0092FF" fill-rule="nonzero" d="M38.377 77.533a3.561 3.561 0 0 1-3.56-3.56 3.561 3.561 0 0 1 3.56-3.56 3.561 3.561 0 0 1 3.56 3.56 3.561 3.561 0 0 1-3.56 3.56M84.652 77.533a3.561 3.561 0 0 1-3.56-3.56 3.561 3.561 0 0 1 3.56-3.56 3.561 3.561 0 0 1 3.56 3.56 3.561 3.561 0 0 1-3.56 3.56"/>
        <path stroke="#0092FF" stroke-linecap="round" stroke-linejoin="round" stroke-width="2" d="M93.551 73.973a8.9 8.9 0 0 0-17.798 0 8.9 8.9 0 0 0 17.798 0zM75.753 40.156v8.419a4.04 4.04 0 0 0 4.04 4.04h15.538M75.753 59.735h3.56M31.508 31.257h24.666M27.698 41.936h24.917M36.597 18.798C36.597 8.968 28.628 1 18.798 1 8.968 1 1 8.968 1 18.798c0 9.83 7.968 17.799 17.798 17.799 9.83 0 17.799-7.969 17.799-17.799z"/>
        <path stroke="#0092FF" stroke-linecap="round" stroke-linejoin="round" stroke-width="2" d="M9.9 20.578l7.119 7.12 10.679-16.019M103.112 55.727l-7.78-3.113-4.667-18.661a3.559 3.559 0 0 0-3.453-2.697H68.634v-7.12a1.78 1.78 0 0 0-1.78-1.779H36.24c-1.65 8.125-8.832 14.239-17.441 14.239v35.596c0 .985.796 1.78 1.78 1.78h8.899a8.899 8.899 0 1 1 17.798 0h28.478a8.899 8.899 0 1 1 17.798 0h8.9a1.78 1.78 0 0 0 1.78-1.78V57.38a1.78 1.78 0 0 0-1.12-1.652z"/>
        <path stroke="#0092FF" stroke-linecap="round" stroke-linejoin="round" stroke-width="2" d="M66.854 22.358H36.239c-1.65 8.123-8.83 14.239-17.44 14.239v14.238H50.84c9.826 0 17.793-7.966 17.793-17.793v-8.904a1.78 1.78 0 0 0-1.78-1.78z"/>
    </g>
</svg>
