<svg xmlns="http://www.w3.org/2000/svg" width="91" height="91" viewBox="0 0 91 91">
    <g fill="none" fill-rule="evenodd" stroke="#0092FF" stroke-width="2" opacity=".9">
        <path d="M19.049 45.237H16.76a3.432 3.432 0 0 1-3.433-3.432v-11.44a3.432 3.432 0 0 1 3.433-3.433h2.288a3.432 3.432 0 0 1 3.432 3.432v11.441a3.432 3.432 0 0 1-3.432 3.432zM51.464 81.847H39.261l6.101-13.728zM37.735 89.475l1.526-7.628h12.203l1.525 7.614zM28.998 59.193l-.416-.227-1.525 6.101 12.203 16.78 6.102-13.729c-6.416 0-12.208-3.612-16.364-8.925zM61.726 59.193c-4.155 5.313-9.947 8.925-16.363 8.925l6.102 13.729 12.203-16.78-1.525-6.101-.417.227z"/>
        <path d="M85.882 76.79c-8.408-4.424-16.388-7.793-23.74-8.671h-.694l-9.984 13.729 1.525 7.613h-.572l.002.014h37.18v-6.521a6.97 6.97 0 0 0-3.717-6.163zM29.276 68.119h-.694c-7.351.878-15.33 4.246-23.74 8.672a6.973 6.973 0 0 0-3.718 6.162v6.522h36.61l1.526-7.628-9.984-13.728zM37.735 89.475h.572zM71.676 45.237h2.288a3.432 3.432 0 0 0 3.432-3.432v-11.44a3.432 3.432 0 0 0-3.432-3.433h-2.288a3.432 3.432 0 0 0-3.432 3.432v11.441a3.432 3.432 0 0 0 3.432 3.432zM72.82 26.932C72.82 6.911 58.705 1 45.362 1 32.02 1 17.905 6.911 17.905 26.932"/>
        <path d="M22.48 29.983c0-12.637 10.246-22.881 22.882-22.881 12.637 0 22.882 10.244 22.882 22.881v10.678c0 13.479-10.245 27.458-22.882 27.458-12.636 0-22.881-13.98-22.881-27.458V29.983zM72.82 45.237c0 6.746-4.074 12.204-25.932 12.204"/>
    </g>
</svg>
