<svg xmlns="http://www.w3.org/2000/svg" width="92" height="88" viewBox="0 0 92 88">
    <g fill="none" fill-rule="evenodd" stroke="#0092FF" stroke-width="2" opacity=".9">
        <path d="M62.756 81.579H29.367c-.347 0-.483-.476-.192-.677l2.795-1.973c3.02-2.129 4.445-6.03 3.565-9.747H56.59l-.001.003c-.879 3.718.548 7.62 3.567 9.747l2.794 1.97c.29.203.153.677-.194.677z"/>
        <path d="M85.579 69.182H6.545a5.422 5.422 0 0 1-5.422-5.42V6.42A5.422 5.422 0 0 1 6.545 1h79.034a5.42 5.42 0 0 1 5.42 5.42v57.342a5.42 5.42 0 0 1-5.42 5.42z"/>
        <path d="M91 55.236H1.123V6.42A5.42 5.42 0 0 1 6.543 1H85.58A5.42 5.42 0 0 1 91 6.42v48.816zM63.882 86.228h-35.64a2.331 2.331 0 0 1-2.325-2.325 2.331 2.331 0 0 1 2.324-2.324h35.641a2.331 2.331 0 0 1 2.324 2.324 2.331 2.331 0 0 1-2.324 2.325z"/>
        <path stroke-linejoin="round" d="M35.215 44.389H13.52L7.322 25.794h34.09zM15.07 25.794l4.649-10.848M33.665 25.794l-4.649-10.848M47.611 14.946h15.496M69.306 14.946h6.198M81.702 14.946h3.1M47.611 35.091h15.496M69.306 35.091h6.198M81.702 35.091h3.1M84.802 44.389H73.954M67.756 44.389h-9.298M52.26 44.389h-4.649M84.802 25.794H73.954M67.756 25.794h-9.298M52.26 25.794h-4.649"/>
    </g>
</svg>
