<svg width="32" height="32" viewBox="0 0 32 32" xmlns="http://www.w3.org/2000/svg"><title>145A0795-4A83-49FD-80C9-1761F5761872</title><g transform="translate(1 1)" fill="none" fill-rule="evenodd"><rect stroke-opacity=".35" stroke="#FFF" x="-.5" y="-.5" width="31" height="31" rx="15.5"/><path d="M21.786 19.75l-3.328-3.328c1.783-2.292 1.579-5.653-.475-7.707C16.879 7.595 15.403 7 13.84 7a5.831 5.831 0 0 0-4.142 1.715C8.594 9.8 8 11.278 8 12.84c0 1.562.611 3.04 1.715 4.143a5.817 5.817 0 0 0 4.125 1.697c1.29 0 2.564-.424 3.6-1.222l3.31 3.328c.136.135.323.22.51.22a.736.736 0 0 0 .509-.22c.305-.306.305-.747.017-1.036zm-3.6-6.927a4.353 4.353 0 0 1-1.273 3.09 4.3 4.3 0 0 1-3.09 1.29 4.3 4.3 0 0 1-3.09-1.29c-1.697-1.698-1.697-4.465 0-6.18a4.328 4.328 0 0 1 3.09-1.29c1.155 0 2.258.458 3.09 1.29a4.353 4.353 0 0 1 1.273 3.09z" fill="#0092FF" fill-rule="nonzero"/></g></svg>