<svg width="95" height="71" viewBox="0 0 95 71" xmlns="http://www.w3.org/2000/svg"><title>6CCF9125-F482-45DA-8B95-E60FAFE74224</title><path d="M63.74 55.333c-6.529 9.24-17.172 14.756-28.472 14.756-19.206 0-34.833-15.62-34.833-34.82 0-19.2 15.625-34.82 34.833-34.82 9.88 0 19.332 4.22 25.936 11.58l2.218 2.47-2.614-2.049c-5.035-3.943-11.087-6.029-17.5-6.029-15.652 0-28.389 12.732-28.389 28.38 0 15.65 12.737 28.381 28.39 28.381 7.536 0 14.633-2.921 19.987-8.225l2.357-2.338-1.913 2.714zM94.62 44.48l-11.56-3.93-7.275 9.804.167-12.203-11.575-3.884 11.66-3.613.121-12.205 7.04 9.97 11.65-3.66-7.312 9.779 7.083 9.942z" fill-rule="nonzero" fill="#FAC883"/></svg>